<svg xmlns="http://www.w3.org/2000/svg" aria-hidden="true" style="position:absolute;width:0;height:0;overflow:hidden">
  <defs>
    <symbol id="icon-Heart" viewBox="0 0 31 32">
      <path stroke-width=".32" d="M11.998 27.571c-4.011-2.803-5.228-3.797-7.016-5.722-2.755-2.963-4.096-6.367-3.87-9.86a8.319 8.319 0 0 1 4.429-6.8 8.752 8.752 0 0 1 2.345-.812c.68-.121 1.952-.114 2.647.006 1.653.29 3.105 1.052 4.345 2.277l.482.47.482-.47c.946-.935 2.017-1.603 3.188-1.987 2.951-.963 6.172-.132 8.314 2.152a8.35 8.35 0 0 1 2.263 5.164c.225 3.493-1.116 6.897-3.87 9.86-1.788 1.925-3.005 2.92-7.016 5.722-1.087.759-2.264 1.613-2.612 1.899l-.002.001-.748.598-.749-.599c-.348-.285-1.525-1.139-2.612-1.899zM10.466 5.986c-2.126-.462-4.428.288-5.981 1.946-1.325 1.416-1.923 3.083-1.841 5.14.106 2.732 1.215 5.233 3.396 7.609 1.674 1.831 2.91 2.847 6.735 5.516 1.083.75 2.131 1.5 2.33 1.659l.001.001.254.199.254-.199.001-.001c.199-.16 1.248-.909 2.33-1.659 3.825-2.669 5.061-3.685 6.735-5.516 2.181-2.377 3.29-4.877 3.396-7.609.082-2.057-.516-3.724-1.841-5.14-1.26-1.349-2.844-2.041-4.696-2.053-2.222-.018-4.048.963-5.515 2.982-.136.186-.265.356-.363.48a4.603 4.603 0 0 1-.124.151 1.174 1.174 0 0 1-.046.049l-.028.024c-.006.004-.015.011-.027.017-.009.004-.037.018-.075.018s-.066-.013-.075-.018c-.012-.006-.021-.013-.027-.017a1.174 1.174 0 0 1-.074-.073 3.59 3.59 0 0 1-.124-.151 16.893 16.893 0 0 1-.363-.48c-1.173-1.613-2.479-2.495-4.23-2.874z"/>
    </symbol>
    <symbol id="icon-Search" viewBox="0 0 32 32">
      <path d="M21.732 20.889a12.664 12.664 0 0 0 3.208-8.446C24.94 5.593 19.556 0 12.922 0S.904 5.593.904 12.443s5.384 12.443 12.018 12.443c2.701 0 5.184-.92 7.196-2.477l8.936 9.253c.217.225.489.338.761.338s.562-.113.761-.338c.417-.432.417-1.145 0-1.595l-8.846-9.178zM3.08 12.443c0-5.612 4.405-10.191 9.843-10.191 5.42 0 9.843 4.561 9.843 10.191s-4.405 10.191-9.843 10.191S3.08 18.055 3.08 12.443z"/>
    </symbol>
    <symbol id="icon-Basket-Icon" viewBox="0 0 32 32">
      <path d="M31.12 9.52c-.64-.72-1.52-1.2-2.48-1.2H16.32c-.4 0-.8.32-.8.8s.4.8.8.8h12.32c.48 0 .96.24 1.28.56.32.4.48.88.32 1.36l-.72 4h-8.8c-.4 0-.8.32-.8.8s.4.8.8.8h8.56l-.72 3.84c-.08.56-.64.96-1.2.96H12c-.56 0-1.04-.4-1.2-.96L7.68 3.92c-.08-.4-.4-.64-.8-.64H.72c-.4 0-.8.32-.8.8s.4.8.8.8h5.52l3.04 16.8c.16 1.12.96 1.92 2 2.24-.4.56-.72 1.28-.72 2.08 0 2 1.6 3.6 3.6 3.6s3.6-1.6 3.6-3.6a3.5 3.5 0 0 0-.64-2H22a3.5 3.5 0 0 0-.64 2c0 2 1.6 3.6 3.6 3.6s3.6-1.6 3.6-3.6c0-.8-.24-1.52-.64-2.08 1.04-.24 1.92-1.12 2.16-2.24l1.76-9.44c.16-.96-.08-1.92-.72-2.72zm-14.96 16.4c0 1.12-.88 2-2 2s-2-.88-2-2 .88-2 2-2 2 .88 2 2zm8.88 2c-1.12 0-2-.88-2-2s.88-2 2-2 2 .88 2 2-.88 2-2 2z"/>
    </symbol>
    <symbol id="icon-Account" viewBox="0 0 32 32">
      <path d="M7.5 12.25c0 4.675 3.825 8.5 8.5 8.5s8.5-3.825 8.5-8.5-3.825-8.5-8.5-8.5-8.5 3.825-8.5 8.5zm15 0c0 3.575-2.925 6.5-6.5 6.5s-6.5-2.925-6.5-6.5 2.925-6.5 6.5-6.5 6.5 2.925 6.5 6.5zM6.1 29.85c2.65-2.65 6.15-4.1 9.9-4.1s7.25 1.45 9.9 4.1l1.425-1.425c-3.025-3-7.05-4.675-11.325-4.675s-8.3 1.675-11.325 4.675L6.1 29.85z"/>
    </symbol>
    <symbol id="icon-Product-Stars" viewBox="0 0 187 32">
<path fill="#054200" style="fill: var(--color1, #054200)" d="M16 25.229l9.888 5.969-2.624-11.248 8.736-7.568-11.503-0.975-4.497-10.605-4.497 10.605-11.503 0.975 8.736 7.568-2.624 11.248 9.888-5.969z"></path>
<path fill="#054200" style="fill: var(--color1, #054200)" d="M54.667 25.229l9.888 5.969-2.624-11.248 8.736-7.568-11.503-0.975-4.497-10.605-4.497 10.605-11.503 0.975 8.736 7.568-2.624 11.248 9.888-5.969z"></path>
<path fill="#054200" style="fill: var(--color1, #054200)" d="M93.333 25.229l9.888 5.969-2.624-11.248 8.736-7.568-11.503-0.975-4.497-10.605-4.497 10.605-11.503 0.975 8.736 7.568-2.624 11.248 9.888-5.969z"></path>
<path fill="#70aa6a" style="fill: var(--color2, #70aa6a)" opacity="0.5" d="M132 25.229l9.888 5.969-2.624-11.248 8.736-7.568-11.503-0.975-4.497-10.605-4.497 10.605-11.503 0.975 8.736 7.568-2.624 11.248 9.888-5.969z"></path>
<path fill="#70aa6a" style="fill: var(--color2, #70aa6a)" opacity="0.5" d="M170.667 25.229l9.888 5.969-2.624-11.248 8.736-7.568-11.503-0.975-4.497-10.605-4.497 10.605-11.503 0.975 8.736 7.568-2.624 11.248 9.888-5.969z"></path>
</symbol>
<symbol id="icon-stars-4" viewBox="0 0 187 32">
<path fill="#054200" style="fill: var(--color1, #054200)" d="M16 25.229l9.888 5.969-2.624-11.248 8.736-7.568-11.503-0.975-4.497-10.605-4.497 10.605-11.503 0.975 8.736 7.568-2.624 11.248 9.888-5.969z"></path>
<path fill="#054200" style="fill: var(--color1, #054200)" d="M54.667 25.229l9.888 5.969-2.624-11.248 8.736-7.568-11.503-0.975-4.497-10.605-4.497 10.605-11.503 0.975 8.736 7.568-2.624 11.248 9.888-5.969z"></path>
<path fill="#054200" style="fill: var(--color1, #054200)" d="M93.333 25.229l9.888 5.969-2.624-11.248 8.736-7.568-11.503-0.975-4.497-10.605-4.497 10.605-11.503 0.975 8.736 7.568-2.624 11.248 9.888-5.969z"></path>
<path fill="#054200" style="fill: var(--color1, #054200)" d="M132 25.229l9.888 5.969-2.624-11.248 8.736-7.568-11.503-0.975-4.497-10.605-4.497 10.605-11.503 0.975 8.736 7.568-2.624 11.248 9.888-5.969z"></path>
<path fill="#70aa6a" style="fill: var(--color2, #70aa6a)" opacity="0.5" d="M170.667 25.229l9.888 5.969-2.624-11.248 8.736-7.568-11.503-0.975-4.497-10.605-4.497 10.605-11.503 0.975 8.736 7.568-2.624 11.248 9.888-5.969z"></path>
</symbol>
<symbol id="icon-stars-5" viewBox="0 0 187 32">
<path fill="#054200" style="fill: var(--color1, #054200)" d="M16 25.229l9.888 5.969-2.624-11.248 8.736-7.568-11.503-0.975-4.497-10.605-4.497 10.605-11.503 0.975 8.736 7.568-2.624 11.248 9.888-5.969z"></path>
<path fill="#054200" style="fill: var(--color1, #054200)" d="M54.667 25.229l9.888 5.969-2.624-11.248 8.736-7.568-11.503-0.975-4.497-10.605-4.497 10.605-11.503 0.975 8.736 7.568-2.624 11.248 9.888-5.969z"></path>
<path fill="#054200" style="fill: var(--color1, #054200)" d="M93.333 25.229l9.888 5.969-2.624-11.248 8.736-7.568-11.503-0.975-4.497-10.605-4.497 10.605-11.503 0.975 8.736 7.568-2.624 11.248 9.888-5.969z"></path>
<path fill="#054200" style="fill: var(--color1, #054200)" d="M132 25.229l9.888 5.969-2.624-11.248 8.736-7.568-11.503-0.975-4.497-10.605-4.497 10.605-11.503 0.975 8.736 7.568-2.624 11.248 9.888-5.969z"></path>
<path fill="#054200" style="fill: var(--color1, #054200)" d="M170.667 25.229l9.888 5.969-2.624-11.248 8.736-7.568-11.503-0.975-4.497-10.605-4.497 10.605-11.503 0.975 8.736 7.568-2.624 11.248 9.888-5.969z"></path>
</symbol>
  </defs>
</svg>
